<?xml version="1.0" encoding="UTF-8"?>
<svg width="54px" height="54px" viewBox="0 0 54 54" version="1.1" xmlns="http://www.w3.org/2000/svg" xmlns:xlink="http://www.w3.org/1999/xlink">
    <!-- Generator: Sketch 54 (76480) - https://sketchapp.com -->
    <title>GO UP</title>
    <desc>Created with Sketch.</desc>
    <g id="UI" stroke="none" stroke-width="1" fill="none" fill-rule="evenodd">
        <g id="career" transform="translate(-820.000000, -5620.000000)" fill="#F1F3F3">
            <g id="CTA" transform="translate(0.000000, 5572.000000)">
                <path d="M848.184211,66.4675058 L848.184211,87.5 L845.815789,87.5 L845.815789,66.4675058 L841.2625,71.25 L839.5,69.3947368 L847,61.5 L854.5,69.3947368 L852.7375,71.25 L848.184211,66.4675058 Z M847,102 C832.088312,102 820,89.9116882 820,75 C820,60.0883118 832.088312,48 847,48 C861.911688,48 874,60.0883118 874,75 C874,89.9116882 861.911688,102 847,102 Z M847,100 C860.807119,100 872,88.8071187 872,75 C872,61.1928813 860.807119,50 847,50 C833.192881,50 822,61.1928813 822,75 C822,88.8071187 833.192881,100 847,100 Z" id="GO-UP"></path>
            </g>
        </g>
    </g>
</svg>